<svg width="113" height="24" viewBox="0 0 113 24" fill="none" xmlns="http://www.w3.org/2000/svg">
<path fill-rule="evenodd" clip-rule="evenodd" d="M7.34821 24C5.68155 24 4.28051 23.7344 3.14509 23.2031C2.02009 22.6615 1.18676 21.9115 0.645089 20.9531C0.113839 19.9844 -0.0892857 18.8646 0.0357143 17.5938H2.94196C2.86905 18.4688 3.04092 19.1927 3.45759 19.7656C3.88467 20.3385 4.47321 20.7656 5.22321 21.0469C5.98363 21.3177 6.82738 21.4583 7.75446 21.4688C8.82738 21.4583 9.82217 21.2812 10.7388 20.9375C11.6555 20.5833 12.4159 20.0885 13.0201 19.4531C13.6243 18.8177 13.994 18.0729 14.1295 17.2188C14.2649 16.4479 14.1555 15.8229 13.8013 15.3438C13.4472 14.8542 12.942 14.4583 12.2857 14.1562C11.6295 13.8542 10.9107 13.5938 10.1295 13.375L7.37946 12.5625C5.6503 12.0312 4.3378 11.2812 3.44196 10.3125C2.54613 9.34375 2.22321 8.07292 2.47321 6.5C2.70238 5.19792 3.24926 4.0625 4.11384 3.09375C4.98884 2.11458 6.07217 1.35417 7.36384 0.8125C8.65551 0.270833 10.0461 0 11.5357 0C13.0357 0 14.317 0.270833 15.3795 0.8125C16.442 1.35417 17.2336 2.09896 17.7545 3.04688C18.2857 3.99479 18.4836 5.08333 18.3482 6.3125H15.6295C15.619 5.07292 15.2024 4.13021 14.3795 3.48438C13.5565 2.82812 12.442 2.5 11.0357 2.5C10.0045 2.5 9.07217 2.66667 8.23884 3C7.41592 3.33333 6.74405 3.79167 6.22321 4.375C5.70238 4.95833 5.37946 5.625 5.25446 6.375C5.1503 7 5.2128 7.53125 5.44196 7.96875C5.67113 8.40625 5.99405 8.77083 6.41071 9.0625C6.8378 9.35417 7.29092 9.59375 7.77009 9.78125C8.25967 9.95833 8.7128 10.1042 9.12946 10.2188L11.3795 10.875C11.9524 11.0312 12.5878 11.25 13.2857 11.5312C13.9836 11.8125 14.6347 12.1927 15.2388 12.6719C15.843 13.151 16.3065 13.7656 16.6295 14.5156C16.9524 15.2656 17.0253 16.1875 16.8482 17.2812C16.6399 18.5312 16.1243 19.6667 15.3013 20.6875C14.4784 21.6979 13.3951 22.5052 12.0513 23.1094C10.7076 23.7031 9.13988 24 7.34821 24ZM20.7545 23.375C21.5878 23.7917 22.5565 24 23.6607 24C24.6815 24 25.567 23.849 26.317 23.5469C27.067 23.2344 27.6868 22.8646 28.1763 22.4375C28.6763 22 29.0461 21.5938 29.2857 21.2188H29.442L29.0357 23.5938H31.692L33.5982 12.0938C33.8274 10.7083 33.7857 9.60417 33.4732 8.78125C33.1607 7.94792 32.692 7.32812 32.067 6.92188C31.4524 6.50521 30.7909 6.23438 30.0826 6.10938C29.3847 5.97396 28.7545 5.90625 28.192 5.90625C27.317 5.90625 26.4055 6.02604 25.4576 6.26562C24.5097 6.50521 23.6034 6.92188 22.7388 7.51562C21.8847 8.10938 21.1503 8.9375 20.5357 10L22.8795 10.9062C23.2961 10.2708 23.9315 9.67708 24.7857 9.125C25.6399 8.5625 26.7024 8.28125 27.9732 8.28125C29.2024 8.28125 30.0513 8.59375 30.5201 9.21875C30.9993 9.83333 31.1503 10.6979 30.9732 11.8125V11.9062C30.9003 12.3333 30.692 12.6354 30.3482 12.8125C30.0045 12.9792 29.494 13.1042 28.817 13.1875C28.1503 13.2604 27.2753 13.3646 26.192 13.5C25.369 13.6042 24.5409 13.7448 23.7076 13.9219C22.8847 14.099 22.1138 14.3646 21.3951 14.7188C20.6763 15.0729 20.067 15.5625 19.567 16.1875C19.0774 16.8125 18.744 17.625 18.567 18.625C18.3899 19.7604 18.4993 20.7292 18.8951 21.5312C19.3013 22.3333 19.9211 22.9479 20.7545 23.375ZM27.2232 20.9688C26.4315 21.3854 25.5045 21.5938 24.442 21.5938C23.369 21.5938 22.5253 21.3594 21.9107 20.8906C21.3065 20.4115 21.0878 19.7083 21.2545 18.7812C21.3586 18.0938 21.6295 17.5521 22.067 17.1562C22.5045 16.7604 23.0409 16.4635 23.6763 16.2656C24.3118 16.0573 24.9836 15.9062 25.692 15.8125C25.9732 15.7812 26.3534 15.7396 26.8326 15.6875C27.3118 15.625 27.8013 15.5521 28.3013 15.4688C28.8118 15.3854 29.2649 15.2917 29.6607 15.1875C30.067 15.0729 30.3378 14.9479 30.4732 14.8125L30.067 17.2812C29.9524 18 29.6503 18.6927 29.1607 19.3594C28.6711 20.0156 28.0253 20.5521 27.2232 20.9688ZM40.192 24C39.0878 24 38.119 23.7917 37.2857 23.375C36.4524 22.9479 35.8326 22.3333 35.4263 21.5312C35.0305 20.7292 34.9211 19.7604 35.0982 18.625C35.2753 17.625 35.6086 16.8125 36.0982 16.1875C36.5982 15.5625 37.2076 15.0729 37.9263 14.7188C38.6451 14.3646 39.4159 14.099 40.2388 13.9219C41.0722 13.7448 41.9003 13.6042 42.7232 13.5C43.8065 13.3646 44.6815 13.2604 45.3482 13.1875C46.0253 13.1042 46.5357 12.9792 46.8795 12.8125C47.2232 12.6354 47.4315 12.3333 47.5045 11.9062V11.8125C47.6815 10.6979 47.5305 9.83333 47.0513 9.21875C46.5826 8.59375 45.7336 8.28125 44.5045 8.28125C43.2336 8.28125 42.1711 8.5625 41.317 9.125C40.4628 9.67708 39.8274 10.2708 39.4107 10.9062L37.067 10C37.6815 8.9375 38.4159 8.10938 39.2701 7.51562C40.1347 6.92188 41.0409 6.50521 41.9888 6.26562C42.9368 6.02604 43.8482 5.90625 44.7232 5.90625C45.2857 5.90625 45.9159 5.97396 46.6138 6.10938C47.3222 6.23438 47.9836 6.50521 48.5982 6.92188C49.2232 7.32812 49.692 7.94792 50.0045 8.78125C50.317 9.60417 50.3586 10.7083 50.1295 12.0938L48.2232 23.5938H45.567L45.9732 21.2188H45.817C45.5774 21.5938 45.2076 22 44.7076 22.4375C44.218 22.8646 43.5982 23.2344 42.8482 23.5469C42.0982 23.849 41.2128 24 40.192 24ZM40.9732 21.5938C42.0357 21.5938 42.9628 21.3854 43.7545 20.9688C44.5565 20.5521 45.2024 20.0156 45.692 19.3594C46.1815 18.6927 46.4836 18 46.5982 17.2812L47.0045 14.8125C46.869 14.9479 46.5982 15.0729 46.192 15.1875C45.7961 15.2917 45.343 15.3854 44.8326 15.4688C44.3326 15.5521 43.843 15.625 43.3638 15.6875C42.8847 15.7396 42.5045 15.7812 42.2232 15.8125C41.5149 15.9062 40.843 16.0573 40.2076 16.2656C39.5722 16.4635 39.0357 16.7604 38.5982 17.1562C38.1607 17.5521 37.8899 18.0938 37.7857 18.7812C37.619 19.7083 37.8378 20.4115 38.442 20.8906C39.0565 21.3594 39.9003 21.5938 40.9732 21.5938ZM63.7232 10.7188L66.2545 10.0625C66.0357 8.80208 65.4993 7.79688 64.6451 7.04688C63.7909 6.28646 62.494 5.90625 60.7545 5.90625C59.5253 5.90625 58.3899 6.125 57.3482 6.5625C56.317 6.98958 55.4576 7.58333 54.7701 8.34375C54.093 9.10417 53.6711 9.97917 53.5045 10.9688C53.2961 12.1667 53.4993 13.1615 54.1138 13.9531C54.7284 14.7448 55.8065 15.3333 57.3482 15.7188L60.1295 16.4062C60.994 16.6146 61.6034 16.9271 61.9576 17.3438C62.3118 17.75 62.4315 18.2604 62.317 18.875C62.2024 19.6146 61.7284 20.2552 60.8951 20.7969C60.0618 21.3281 59.0149 21.5938 57.7545 21.5938C56.6711 21.5938 55.8274 21.3594 55.2232 20.8906C54.6295 20.4115 54.2961 19.7083 54.2232 18.7812L51.5357 19.4062C51.6086 20.8854 52.1607 22.0156 53.192 22.7969C54.2336 23.5677 55.6503 23.9583 57.442 23.9688C58.7961 23.9583 60.0201 23.7292 61.1138 23.2812C62.218 22.8229 63.119 22.1979 63.817 21.4062C64.5253 20.6146 64.9628 19.7188 65.1295 18.7188C65.3378 17.5 65.119 16.5052 64.4732 15.7344C63.8378 14.9635 62.7649 14.3854 61.2545 14L58.7545 13.375C57.7857 13.1146 57.093 12.7917 56.6763 12.4062C56.2597 12.0104 56.1086 11.4792 56.2232 10.8125C56.3378 10.0729 56.7857 9.45833 57.567 8.96875C58.3586 8.47917 59.2857 8.22917 60.3482 8.21875C61.1399 8.21875 61.7649 8.34375 62.2232 8.59375C62.6815 8.84375 63.0201 9.16146 63.2388 9.54688C63.468 9.92188 63.6295 10.3125 63.7232 10.7188ZM68.0201 6.125V23.5938H72.8482V13.125C72.8482 12.4688 72.9732 11.9062 73.2232 11.4375C73.4732 10.9583 73.8118 10.5833 74.2388 10.3125C74.6659 10.0417 75.1503 9.90625 75.692 9.90625C76.4836 9.90625 77.1243 10.1615 77.6138 10.6719C78.1034 11.1719 78.3482 11.8438 78.3482 12.6875V23.5938H83.0357V12.9375C83.0357 12.0312 83.2805 11.3021 83.7701 10.75C84.2701 10.1875 84.9576 9.90625 85.8326 9.90625C86.6034 9.90625 87.244 10.1458 87.7545 10.625C88.2753 11.1042 88.5357 11.8333 88.5357 12.8125V23.5938H93.3795V11.8438C93.3795 9.94792 92.8638 8.48438 91.8326 7.45312C90.8118 6.42188 89.4888 5.90625 87.8638 5.90625C86.593 5.90625 85.4888 6.20833 84.5513 6.8125C83.6138 7.41667 82.968 8.22396 82.6138 9.23438H82.4263C82.1451 8.21354 81.5826 7.40625 80.7388 6.8125C79.9055 6.20833 78.8899 5.90625 77.692 5.90625C76.5149 5.90625 75.4993 6.20312 74.6451 6.79688C73.7909 7.39062 73.1815 8.20312 72.817 9.23438H72.5982V6.125H68.0201ZM103.458 23.9375C101.698 23.9375 100.172 23.5625 98.8801 22.8125C97.5988 22.0521 96.6092 21 95.9113 19.6562C95.2238 18.3021 94.8801 16.7292 94.8801 14.9375C94.8801 13.125 95.2238 11.5469 95.9113 10.2031C96.6092 8.84896 97.5988 7.79688 98.8801 7.04688C100.172 6.28646 101.698 5.90625 103.458 5.90625C105.229 5.90625 106.755 6.28646 108.036 7.04688C109.328 7.79688 110.318 8.84896 111.005 10.2031C111.703 11.5469 112.052 13.125 112.052 14.9375C112.052 16.7292 111.703 18.3021 111.005 19.6562C110.318 21 109.328 22.0521 108.036 22.8125C106.755 23.5625 105.229 23.9375 103.458 23.9375Z" fill="#1E0A52"/>
<path d="M105.763 10.2004C105.385 9.23156 104.451 8.59375 103.411 8.59375C102.371 8.59375 101.438 9.23156 101.06 10.2004L100.956 10.4667C100.657 11.2331 100.05 11.8393 99.2841 12.1384L99.0177 12.2423C98.0489 12.6203 97.4111 13.5538 97.4111 14.5938C97.4111 15.6337 98.0489 16.5672 99.0177 16.9452L99.2841 17.0491C100.05 17.3482 100.657 17.9544 100.956 18.7208L101.06 18.9871C101.438 19.9559 102.371 20.5938 103.411 20.5938C104.451 20.5938 105.385 19.9559 105.763 18.9871L105.867 18.7208C106.166 17.9544 106.772 17.3482 107.538 17.0491L107.805 16.9452C108.773 16.5672 109.411 15.6337 109.411 14.5938C109.411 13.5538 108.773 12.6203 107.805 12.2423L107.538 12.1384C106.772 11.8393 106.166 11.2331 105.867 10.4667L105.763 10.2004Z" fill="#D8FA50"/>
</svg>
