<svg width="126" height="37" viewBox="0 0 126 37" fill="none" xmlns="http://www.w3.org/2000/svg">
<path d="M41.0397 9H52.2174V12.7725H45.2704V18.015H52.2174V21.7042H45.2704V28.4168H41.0397V9ZM54.5155 15.0467H58.5115V17.8484C58.7203 16.8856 59.1473 16.1466 59.7913 15.6292C60.4517 15.0924 61.1848 14.825 61.985 14.825C62.4032 14.825 62.7517 14.8626 63.0294 14.9359V18.875C62.6309 18.8239 62.2298 18.7964 61.8282 18.7917C60.7313 18.7917 59.9051 19.1699 59.3472 19.9285C58.7911 20.6682 58.5115 21.7774 58.5115 23.2575V28.4168H54.5174V15.0467H54.5155ZM69.3375 28.7775C68.1192 28.7775 67.0564 28.4718 66.1512 27.8618C65.2631 27.2518 64.5571 26.3857 64.1143 25.3652C63.6443 24.2936 63.4077 23.0808 63.4077 21.7317C63.4077 20.4001 63.6532 19.1975 64.1402 18.1259C64.597 17.0905 65.3219 16.2151 66.2296 15.6017C67.1513 14.9916 68.2052 14.686 69.39 14.686C70.2775 14.686 71.0708 14.8902 71.7666 15.2967C72.4625 15.7045 72.985 16.2594 73.3335 16.9609V15.0467H77.303V28.4168H73.3335V26.5302C72.985 27.196 72.4454 27.7409 71.7141 28.1668C70.9829 28.5787 70.1656 28.7883 69.3375 28.7775ZM70.4869 25.2543C71.444 25.2543 72.1841 24.9217 72.7066 24.2559C73.2292 23.5901 73.4904 22.7483 73.4904 21.7317C73.4904 20.7334 73.2292 19.9009 72.7066 19.2351C72.1841 18.5693 71.444 18.2367 70.4869 18.2367C69.5804 18.2367 68.8504 18.5599 68.2931 19.2076C67.7535 19.8552 67.4834 20.6957 67.4834 21.7317C67.4834 22.7678 67.7535 23.6177 68.2931 24.2835C68.8504 24.9311 69.5817 25.2543 70.4869 25.2543ZM80.0977 15.0467H84.0937V16.9884C84.3733 16.3031 84.825 15.7482 85.4512 15.3242C86.0965 14.9003 86.8448 14.686 87.6975 14.686C89.6826 14.686 90.9977 15.5083 91.641 17.155C91.9953 16.4086 92.5494 15.7912 93.2345 15.38C93.967 14.9117 94.8084 14.6718 95.663 14.686C98.6405 14.686 100.129 16.4973 100.129 20.1226V28.4168H96.1071V20.8993C96.1071 19.9943 95.9502 19.3285 95.637 18.9025C95.3233 18.4779 94.8533 18.2643 94.2264 18.2643C93.5476 18.2643 93.0251 18.5142 92.6595 19.0134C92.2939 19.4945 92.111 20.3349 92.111 21.5376V28.4168H88.0891V20.8718C88.0891 19.9661 87.9328 19.309 87.6191 18.9025C87.3243 18.4779 86.8619 18.2643 86.2363 18.2643C85.5392 18.2643 85.0078 18.5142 84.6422 19.0134C84.2765 19.4945 84.0937 20.3349 84.0937 21.5376V28.4168H80.099V15.0467H80.0977ZM115.14 21.0384C115.14 21.6108 115.105 22.2309 115.034 22.8968H105.738C105.774 23.7661 106.051 24.4306 106.574 24.8942C107.096 25.3558 107.803 25.5876 108.689 25.5876C109.926 25.5876 110.71 25.1891 111.04 24.3943H114.957C114.765 25.7078 114.086 26.77 112.92 27.5843C111.771 28.3791 110.36 28.7775 108.689 28.7775C106.531 28.7775 104.833 28.1574 103.596 26.9185C102.378 25.6789 101.768 23.9509 101.768 21.7317C101.768 20.2893 102.046 19.0409 102.604 17.9868C103.142 16.934 103.972 16.0821 104.98 15.5459C106.008 14.9735 107.201 14.686 108.56 14.686C109.847 14.686 110.987 14.954 111.98 15.4908C112.989 16.0277 113.765 16.7761 114.304 17.7375C114.862 18.7003 115.14 19.8001 115.14 21.0384ZM111.195 20.2617C111.178 19.3742 110.943 18.6983 110.489 18.2367C110.038 17.7752 109.384 17.5434 108.531 17.5434C107.678 17.5434 106.999 17.7926 106.494 18.2925C106.007 18.7735 105.755 19.4293 105.736 20.2617H111.195ZM116.902 15.0467H120.898V17.8484C121.107 16.8856 121.534 16.1466 122.178 15.6292C122.803 15.1065 123.576 14.823 124.371 14.825C124.789 14.825 125.138 14.8626 125.416 14.9359V18.875C125.017 18.8239 124.616 18.7964 124.214 18.7917C123.118 18.7917 122.291 19.1699 121.734 19.9285C121.176 20.6682 120.898 21.7774 120.898 23.2575V28.4168H116.902V15.0467Z" fill="#5F5F86"/>
<path d="M0 0H23.2246V12.3333H11.6123L0 0ZM0 12.3333H11.6123L23.2246 24.6667H0V12.3333ZM0 24.6667H11.6123V37L0 24.6667Z" fill="#5F5F86"/>
</svg>
