<svg width="126" height="26" viewBox="0 0 126 26" fill="none" xmlns="http://www.w3.org/2000/svg">
<path fill-rule="evenodd" clip-rule="evenodd" d="M122.712 18.8714C122.787 19.7258 123.469 20.8135 124.652 20.8135H125.343C125.611 20.8135 125.831 20.5934 125.831 20.3246V5.08765H125.827C125.814 4.83095 125.602 4.62537 125.343 4.62537H123.2C122.941 4.62537 122.729 4.83095 122.715 5.08765H122.712V6.32573C121.399 4.70443 119.329 4.03149 117.254 4.03149C112.535 4.03149 108.71 7.8663 108.71 12.597C108.71 17.3281 112.535 21.163 117.254 21.163C119.329 21.163 121.592 20.356 122.712 18.8695V18.8714ZM117.261 18.1652C114.261 18.1652 111.828 15.6724 111.828 12.597C111.828 9.52222 114.261 7.02941 117.261 7.02941C120.263 7.02941 122.695 9.52222 122.695 12.597C122.695 15.6724 120.263 18.1652 117.261 18.1652Z" fill="#5F5F86"/>
<path fill-rule="evenodd" clip-rule="evenodd" d="M106 11.5109C106 7.06647 103.204 4.0682 98.7441 4.0682C96.6152 4.0682 94.8701 5.30239 94.2537 6.36258C94.1205 5.53359 93.6815 4.66221 92.3202 4.66221H91.6263C91.3579 4.66221 91.1387 4.88249 91.1387 5.15128V20.3895H91.1414C91.1555 20.6458 91.3674 20.8516 91.6265 20.8516H93.7695C93.8022 20.8516 93.8344 20.8477 93.8655 20.8416C93.8797 20.8388 93.8928 20.8333 93.9067 20.8294C93.9226 20.8244 93.9392 20.8206 93.9544 20.8144C93.9734 20.8065 93.9907 20.7959 94.0084 20.7859C94.0171 20.7806 94.0263 20.7769 94.0346 20.7713C94.056 20.7574 94.0756 20.7408 94.0946 20.7238C94.0977 20.7207 94.1014 20.7186 94.1045 20.7157C94.1258 20.695 94.1453 20.6722 94.1625 20.6486C94.2161 20.5748 94.2489 20.4854 94.2542 20.3895H94.257V11.3886C94.257 9.00169 96.1873 7.06647 98.5683 7.06647C100.949 7.06647 102.88 9.00169 102.88 11.3886L102.881 18.9122L102.882 18.9095C102.882 18.9162 102.883 18.923 102.883 18.9301V20.3895H102.886C102.9 20.6458 103.112 20.8516 103.371 20.8516H105.514C105.547 20.8516 105.579 20.8477 105.61 20.8416C105.623 20.8393 105.634 20.8342 105.647 20.8307C105.664 20.8256 105.682 20.8212 105.699 20.8144C105.717 20.8071 105.733 20.797 105.749 20.7876C105.759 20.7819 105.77 20.7778 105.78 20.7713C105.799 20.7582 105.817 20.7425 105.835 20.727C105.84 20.7227 105.845 20.7196 105.849 20.7153C105.87 20.6957 105.888 20.6745 105.904 20.6523C105.905 20.6506 105.907 20.6492 105.908 20.6476C105.961 20.5744 105.993 20.4861 105.999 20.3907L105.999 20.3895H106.002L106 11.5109Z" fill="#5F5F86"/>
<path fill-rule="evenodd" clip-rule="evenodd" d="M83.6832 18.8713C83.7581 19.7258 84.4404 20.8134 85.6224 20.8134H86.3139C86.582 20.8134 86.8015 20.5933 86.8015 20.3245V5.08765H86.7987C86.7848 4.83095 86.5727 4.62537 86.3139 4.62537H84.171C83.9118 4.62537 83.7001 4.83095 83.6857 5.08765H83.6832V6.32573C82.3701 4.70443 80.3001 4.03149 78.2243 4.03149C73.5059 4.03149 69.6811 7.86628 69.6811 12.5971C69.6811 17.3281 73.5059 21.163 78.2243 21.163C80.3001 21.163 82.5624 20.356 83.683 18.8694L83.6832 18.8713ZM78.2326 18.1651C75.232 18.1651 72.7991 15.6725 72.7991 12.5971C72.7991 9.52222 75.232 7.02941 78.2326 7.02941C81.2336 7.02941 83.666 9.52222 83.666 12.5971C83.666 15.6725 81.2336 18.1651 78.2326 18.1651Z" fill="#5F5F86"/>
<path fill-rule="evenodd" clip-rule="evenodd" d="M57.0087 16.6891C58.4392 17.6827 60.0008 18.1653 61.5013 18.1653C62.9309 18.1653 64.4088 17.4223 64.4088 16.129C64.4088 14.4024 61.1884 14.1337 59.1651 13.4443C57.1413 12.7549 55.3983 11.3296 55.3983 9.02157C55.3983 5.48988 58.5371 4.03125 61.4666 4.03125C63.3228 4.03125 65.2379 4.6449 66.4795 5.52395C66.9071 5.84879 66.6467 6.22173 66.6467 6.22173L65.4615 7.91885C65.3283 8.11 65.0953 8.27516 64.761 8.06826C64.4266 7.86151 63.2539 7.02926 61.4666 7.02926C59.6792 7.02926 58.6025 7.85682 58.6025 8.88256C58.6025 10.1126 60.0019 10.4994 61.6409 10.9187C64.4972 11.6906 67.613 12.6184 67.613 16.129C67.613 19.2407 64.7099 21.1637 61.5013 21.1637C59.0699 21.1637 56.9998 20.4688 55.2636 19.1914C54.9019 18.8285 55.1545 18.4915 55.1545 18.4915L56.3339 16.803C56.5739 16.4873 56.8764 16.5974 57.0087 16.6891Z" fill="#5F5F86"/>
<path fill-rule="evenodd" clip-rule="evenodd" d="M48.7704 18.8713C48.8453 19.7258 49.5276 20.8134 50.7095 20.8134H51.4011C51.6692 20.8134 51.8889 20.5933 51.8889 20.3245V5.08765H51.8859C51.8718 4.83095 51.6602 4.62537 51.4011 4.62537H49.2582C48.999 4.62537 48.7874 4.83095 48.773 5.08765H48.7704V6.32573C47.4575 4.70443 45.3874 4.03149 43.3116 4.03149C38.5933 4.03149 34.7682 7.86628 34.7682 12.5971C34.7682 17.3281 38.5933 21.163 43.3116 21.163C45.3874 21.163 47.6496 20.356 48.7701 18.8694L48.7704 18.8713ZM43.32 18.1651C40.3191 18.1651 37.8863 15.6725 37.8863 12.5971C37.8863 9.52222 40.3191 7.02941 43.32 7.02941C46.3207 7.02941 48.7532 9.52222 48.7532 12.5971C48.7532 15.6725 46.3207 18.1651 43.32 18.1651Z" fill="#5F5F86"/>
<path fill-rule="evenodd" clip-rule="evenodd" d="M22.2407 13.2908C18.827 13.2908 16.0594 15.9354 16.0594 19.1981C16.0594 22.4604 18.827 25.1051 22.2407 25.1051C25.6546 25.1051 28.4221 22.4604 28.4221 19.1981C28.4221 15.9354 25.6546 13.2908 22.2407 13.2908ZM6.18129 13.2914C2.76749 13.2914 0 15.9354 0 19.1981C0 22.4604 2.76749 25.1051 6.18129 25.1051C9.59523 25.1051 12.3629 22.4604 12.3629 19.1981C12.3629 15.9354 9.59523 13.2914 6.18129 13.2914ZM20.3922 5.90687C20.3922 9.16947 17.6249 11.8144 14.211 11.8144C10.7971 11.8144 8.02976 9.16947 8.02976 5.90687C8.02976 2.64494 10.7971 0 14.211 0C17.6249 0 20.3922 2.64494 20.3922 5.90687Z" fill="#5F5F86"/>
</svg>
