<svg width="105" height="26" viewBox="0 0 105 26" fill="none" xmlns="http://www.w3.org/2000/svg">
<path d="M6.03205 10.155C10.5651 8.49813 11.3366 4.18202 10.758 0.213646C10.758 0.0704569 10.8737 -0.0318207 10.9894 0.0090903C15.3296 2.2592 20.2098 7.16852 20.2098 14.5325C20.2098 20.1782 16.0818 25.1694 10.0828 25.1694C7.94221 25.2726 5.83013 24.6169 4.07994 23.3058C2.32976 21.9947 1.04115 20.1028 0.417508 17.9288C-0.206139 15.7548 -0.129307 13.4225 0.635877 11.2999C1.40106 9.17739 2.81102 7.38551 4.64321 6.20711C4.75895 6.12529 4.91326 6.20711 4.91326 6.3503C4.97113 7.10715 5.16402 9.00952 5.95489 10.155H6.03205Z" fill="#5F5F86"/>
<path d="M37.7322 20.476L38.0601 20.0669L39.0824 23.5034L38.9474 23.6466C38.1758 24.4034 37.0185 24.7921 35.5332 24.7921H35.4753C34.125 24.7921 33.0641 24.383 32.3311 23.6261C31.5981 22.8488 31.2123 21.6829 31.2123 20.2101V10.8414H28.6083V7.05716H31.2123V2.49557H35.2245V7.05716H38.4073V10.8414H35.2053V19.2896C35.2053 19.6782 35.3017 20.926 36.4205 20.926C36.9992 20.926 37.5393 20.701 37.7322 20.4555V20.476ZM39.854 24.4034V7.07761H43.8662V24.4034H39.854ZM41.8408 0C42.3169 1.61552e-05 42.7823 0.149476 43.1784 0.429542C43.5745 0.709609 43.8835 1.10775 44.0665 1.57378C44.2496 2.03981 44.2985 2.55287 44.207 3.0483C44.1155 3.54373 43.8878 3.99936 43.5525 4.35775C43.2172 4.71615 42.7894 4.96127 42.3229 5.06223C41.8565 5.16319 41.3723 5.11546 40.9314 4.92507C40.4905 4.73467 40.1126 4.41013 39.8453 3.99234C39.5781 3.57455 39.4334 3.08222 39.4296 2.5774C39.4296 1.18642 40.5291 0 41.8408 0ZM54.649 6.64805C58.1211 6.64805 60.0307 8.65269 60.0307 12.3142V24.383H56.0185V13.337C55.9414 11.3733 55.0541 10.4732 53.1637 10.4732C51.4662 10.4732 50.0967 11.5778 49.4023 12.5188V24.383H45.3901V7.09807H49.4023V8.93907C50.5596 7.75265 52.4114 6.68896 54.649 6.68896V6.64805ZM73.379 8.8777V0.736399H77.3912V24.4239H73.379V22.6238C72.7651 23.3105 72.0265 23.8584 71.2077 24.2345C70.3889 24.6107 69.5068 24.8073 68.6145 24.8126C64.2358 24.8126 61.3038 21.1715 61.3038 15.7508C61.3038 10.3096 64.2358 6.6685 68.6145 6.6685C69.5087 6.67283 70.3927 6.87104 71.2121 7.25095C72.0314 7.63087 72.7688 8.18446 73.379 8.8777ZM73.379 12.5392C72.9319 11.9217 72.3605 11.4176 71.7065 11.0637C71.0524 10.7099 70.3322 10.5151 69.5983 10.4937C67.1099 10.4937 65.451 12.6006 65.451 15.7508C65.451 18.8805 67.1099 20.9874 69.5983 20.9874C71.045 20.9874 72.6267 20.1692 73.379 18.9827V12.5392ZM86.7658 6.6685C91.511 6.6685 94.8095 10.5551 94.8095 16.078V17.244H82.6765C83.0816 19.6782 84.8948 21.2328 87.3638 21.2328C88.9263 21.2328 90.643 20.5169 91.6268 19.4737L91.8968 19.2282L93.8065 22.1329L93.6136 22.317C91.8061 24.0165 89.4498 24.9105 87.0359 24.8126C82.0207 24.8126 78.4907 21.0692 78.4907 15.7303C78.4517 14.5516 78.6377 13.3766 79.0375 12.276C79.4374 11.1754 80.0428 10.1718 80.8174 9.32551C81.5921 8.47919 82.52 7.80758 83.5455 7.35099C84.571 6.89441 85.6729 6.66227 86.7851 6.6685H86.7658ZM82.6572 14.0325H90.8938C90.6623 11.4346 88.6369 10.2482 86.7658 10.2482C83.9496 10.2482 82.8887 12.4983 82.6572 14.0529V14.0325ZM104.512 6.6685H104.801V10.9642L104.454 10.9028C104.165 10.8414 103.798 10.8005 103.432 10.8005C102.14 10.8005 100.346 11.7619 99.6705 12.7847V24.383H95.6583V7.07761H99.6898V9.00043C101.021 7.52764 102.776 6.6685 104.512 6.6685Z" fill="#5F5F86"/>
</svg>
