<svg width="107" height="30" viewBox="0 0 107 30" fill="none" xmlns="http://www.w3.org/2000/svg">
<path d="M27.9009 22.1582V0.0318625H31.1403V8.75499C32.1604 7.14257 33.6905 6.33607 35.7302 6.3355C37.4702 6.3355 38.8152 6.88199 39.7653 7.97496C40.7154 9.06795 41.1906 10.5908 41.1907 12.5435V22.1582H37.9512V13.0211C37.9512 10.4957 36.8912 9.23285 34.7711 9.2325C33.7108 9.2325 32.8409 9.5721 32.1612 10.2513C31.4816 10.9305 31.1414 11.8856 31.1408 13.1166V22.158L27.9009 22.1582Z" fill="#5F5F86"/>
<path d="M56.5004 20.2486C55.0604 21.7767 53.2506 22.5407 51.0706 22.5407C48.8907 22.5407 47.0757 21.7767 45.6255 20.2486C44.1754 18.7203 43.4504 16.778 43.4505 14.4215C43.4506 12.0652 44.1756 10.1286 45.6255 8.61178C47.0755 7.09458 48.8905 6.33581 51.0706 6.33546C53.2507 6.33512 55.0607 7.0939 56.5004 8.61178C57.9407 10.1295 58.6607 12.0661 58.6606 14.4215C58.6605 16.777 57.9404 18.7193 56.5004 20.2486ZM47.9956 18.3063C48.765 19.2613 49.7901 19.7389 51.0706 19.7389C52.3512 19.7389 53.3761 19.2613 54.1455 18.3063C54.9152 17.3512 55.3001 16.0563 55.3005 14.4215C55.3005 12.8087 54.9106 11.5246 54.1306 10.5694C53.3507 9.61417 52.3307 9.1366 51.0706 9.13673C49.7904 9.13673 48.7654 9.60896 47.9956 10.5534C47.2258 11.4979 46.8408 12.7871 46.8406 14.4209C46.8406 16.0564 47.2256 17.3514 47.9956 18.3063Z" fill="#5F5F86"/>
<path d="M66.1591 22.5402C63.1789 22.5402 61.6887 20.8422 61.6887 17.4463V9.61457H59.4393V6.71758H61.7792L62.5294 2.16581H64.959V6.71758H70.7489V9.61457H64.9592V17.3509C64.9592 18.7731 65.4492 19.4842 66.4291 19.4841C67.3488 19.4841 68.1788 18.5925 68.9191 16.8096L71.4392 18.1788C70.1989 21.0867 68.4389 22.5405 66.1591 22.5402Z" fill="#5F5F86"/>
<path d="M72.4807 29.2259C71.0407 29.2259 69.8506 28.8014 68.9107 27.9524L70.1108 25.2463C70.6909 25.9676 71.3209 26.3286 72.0008 26.3293C72.9007 26.3293 73.3506 25.7138 73.3506 24.4828V6.71757H76.5901V24.5457C76.5901 26.2012 76.2051 27.3951 75.435 28.1272C74.6651 28.8594 73.6803 29.2256 72.4807 29.2259ZM74.9706 4.10677C74.4381 4.12595 73.9201 3.91987 73.5306 3.53387C73.3433 3.3465 73.1957 3.11905 73.0975 2.86659C72.9992 2.61413 72.9527 2.34239 72.9608 2.06938C72.9536 1.79413 73.0006 1.52032 73.0987 1.26542C73.1968 1.01052 73.3439 0.780113 73.5306 0.588912C73.9223 0.210021 74.4332 0 74.9632 0C75.4931 0 76.0041 0.210021 76.3957 0.588912C76.5863 0.777736 76.7371 1.00733 76.838 1.26254C76.9387 1.51773 76.9875 1.79273 76.9807 2.06938C76.9854 2.34102 76.9357 2.61062 76.8348 2.86033C76.734 3.11004 76.5844 3.33417 76.3957 3.51788C76.2064 3.71076 75.9831 3.86206 75.7385 3.96311C75.494 4.06417 75.2331 4.11299 74.9706 4.10677Z" fill="#5F5F86"/>
<path d="M84.6364 22.5404C82.9761 22.5404 81.631 22.0999 80.6014 21.2192C79.5716 20.3384 79.0567 19.1555 79.0565 17.6702C79.0565 16.312 79.5915 15.1603 80.6615 14.2152C81.7314 13.2703 83.0764 12.798 84.6963 12.7986C86.3564 12.7986 87.7565 13.3611 88.8964 14.4861V12.6074C88.8964 11.5042 88.6313 10.6499 88.1013 10.0446C87.5712 9.43934 86.8162 9.13687 85.8365 9.13721C83.8565 9.13721 82.6265 10.209 82.1464 12.3526L79.1763 11.6841C79.5759 10.0287 80.3659 8.72342 81.5465 7.7683C82.727 6.81317 84.197 6.33562 85.9563 6.33562C87.8765 6.33562 89.3916 6.87156 90.5014 7.94346C91.6113 9.01534 92.1662 10.5806 92.1664 12.6391V22.1584H89.0163V20.216C87.956 21.7658 86.4961 22.5406 84.6364 22.5404ZM85.2357 19.9934C86.6759 19.9934 87.896 19.2294 88.8963 17.7014V17.2233C87.8959 15.9499 86.6758 15.3132 85.2357 15.3133C84.3958 15.3133 83.7156 15.531 83.1948 15.9665C82.9487 16.1589 82.7495 16.411 82.6139 16.7018C82.4781 16.9924 82.4099 17.3134 82.4148 17.6377C82.4068 17.9655 82.4721 18.2907 82.605 18.5867C82.738 18.8826 82.9351 19.1411 83.1799 19.341C83.691 19.7761 84.3758 19.9936 85.2357 19.9934Z" fill="#5F5F86"/>
<path d="M95.3187 22.1582V6.71753H98.4687V9.39175C99.2684 7.43922 100.648 6.4629 102.609 6.46279C103.768 6.46279 104.728 6.86603 105.489 7.67253C106.249 8.47903 106.629 9.56146 106.628 10.9198C106.62 11.7328 106.489 12.5391 106.238 13.3075L103.268 12.9892C103.329 12.5673 103.369 12.1422 103.388 11.7159C103.388 10.1241 102.768 9.3281 101.529 9.32799C100.688 9.32799 99.9833 9.80021 99.4134 10.7447C98.8437 11.6891 98.5586 12.9361 98.5583 14.4857V22.1582H95.3187Z" fill="#5F5F86"/>
<path d="M7.66548 13.0482C10.0798 11.6248 13.3865 9.67488 13.3865 4H9.38254C9.38254 7.17511 7.92593 8.03387 5.721 9.33385C3.30666 10.7578 0 12.7068 0 18.3822H4.00395C4.00395 15.2069 5.46056 14.3482 7.66548 13.0482Z" fill="#5F5F86"/>
<path d="M14.5954 11.7441C14.5954 14.9193 13.1388 15.7781 10.9339 17.0779C8.52019 18.5013 5.21288 20.4509 5.21288 26.1262H9.21667C9.21667 22.9509 10.6733 22.0922 12.8782 20.7922C15.2925 19.3688 18.599 17.4194 18.599 11.7441H14.5954Z" fill="#5F5F86"/>
</svg>
