<svg width="127" height="30" viewBox="0 0 127 30" fill="none" xmlns="http://www.w3.org/2000/svg">
<path fill-rule="evenodd" clip-rule="evenodd" d="M99.3258 20.5915C102.459 20.5915 105.007 17.941 105.007 14.6833C105.007 11.4253 102.459 8.77491 99.3258 8.77491C96.1935 8.77491 93.6448 11.4253 93.6448 14.6833C93.6448 17.941 96.1935 20.5915 99.3258 20.5915ZM105.007 0H107.698V23.4106H105.007V21.0731C103.454 22.5704 101.451 23.3906 99.3258 23.3906C94.7095 23.3906 90.9537 19.4844 90.9537 14.6833C90.9537 9.88178 94.7095 5.97579 99.3258 5.97579C101.451 5.97579 103.454 6.79588 105.007 8.29326V0ZM43.5097 20.4884C46.6422 20.4884 49.1907 17.838 49.1907 14.5801C49.1907 11.3223 46.6422 8.67189 43.5097 8.67189C40.3771 8.67189 37.8286 11.3223 37.8286 14.5801C37.8286 17.838 40.3771 20.4884 43.5097 20.4884ZM37.8286 8.19042C39.3819 6.69304 41.3852 5.87283 43.5097 5.87283C48.1262 5.87283 51.8821 9.77894 51.8821 14.5801C51.8821 19.3813 48.1262 23.2874 43.5097 23.2874C41.3852 23.2874 39.3819 22.4674 37.8286 20.9699V29.2632H35.1372V5.85265H37.8286V8.19042ZM57.0174 13.2206C57.6231 10.5747 59.8801 8.67488 62.4545 8.67488C64.9954 8.67488 67.1237 10.5342 67.691 13.2206H57.0174ZM62.4545 5.85265C57.9072 5.85265 54.2078 9.79106 54.2078 14.6316C54.2078 19.4724 57.9072 23.4106 62.4545 23.4106C65.001 23.4106 67.3381 22.3957 68.8677 20.6262L69.7647 19.5877L69.6533 19.4782L67.9257 17.7865L67.8142 17.6771L67.7113 17.7959L66.9166 18.7158C65.9031 19.8884 64.2351 20.5885 62.4545 20.5885C59.8801 20.5885 57.6232 18.6887 57.0174 16.0426H70.4873V14.6316C70.4873 9.70882 66.9588 5.85265 62.4545 5.85265ZM123.612 14.6317C123.612 17.9163 121.064 20.5885 117.931 20.5885C114.799 20.5885 112.25 17.9163 112.25 14.6317C112.25 11.347 114.799 8.67476 117.931 8.67476C121.064 8.67476 123.612 11.347 123.612 14.6317ZM117.931 5.85265C113.315 5.85265 109.559 9.79088 109.559 14.6317C109.559 19.4724 113.315 23.4106 117.931 23.4106C122.548 23.4106 126.304 19.4724 126.304 14.6317C126.304 9.79088 122.548 5.85265 117.931 5.85265ZM80.4875 5.85265C78.6175 5.85265 76.8358 6.60841 75.4334 7.98874V5.85265H72.8132V23.4106H75.4334V14.4505C75.4334 11.2537 77.7007 8.65284 80.4875 8.65284C83.2748 8.65284 85.5428 11.2537 85.5428 14.4505V23.4106H88.1624V14.4505C88.1624 9.70966 84.7194 5.85265 80.4875 5.85265Z" fill="#5F5F86"/>
<path fill-rule="evenodd" clip-rule="evenodd" d="M0 14.1385H12.662V27.2772L25.324 14.1385V1H12.662L0 14.1385Z" fill="#5F5F86"/>
</svg>
